<?xml version="1.0" encoding="UTF-8" standalone="no"?>
<!-- Created with Inkscape (http://www.inkscape.org/) -->

<svg
   width="210mm"
   height="297mm"
   viewBox="0 0 210 297"
   version="1.1"
   id="svg1"
   xml:space="preserve"
   sodipodi:docname="ResearchCamp-logo list.svg"
   inkscape:version="1.4.2 (f4327f4, 2025-05-13)"
   xmlns:inkscape="http://www.inkscape.org/namespaces/inkscape"
   xmlns:sodipodi="http://sodipodi.sourceforge.net/DTD/sodipodi-0.dtd"
   xmlns:xlink="http://www.w3.org/1999/xlink"
   xmlns="http://www.w3.org/2000/svg"
   xmlns:svg="http://www.w3.org/2000/svg"><sodipodi:namedview
     id="namedview1"
     pagecolor="#ffffff"
     bordercolor="#000000"
     borderopacity="0.25"
     inkscape:showpageshadow="2"
     inkscape:pageopacity="0.0"
     inkscape:pagecheckerboard="0"
     inkscape:deskcolor="#d1d1d1"
     inkscape:document-units="mm"
     inkscape:zoom="0.25"
     inkscape:cx="176"
     inkscape:cy="454"
     inkscape:window-width="1920"
     inkscape:window-height="991"
     inkscape:window-x="-9"
     inkscape:window-y="-9"
     inkscape:window-maximized="1"
     inkscape:current-layer="layer1" /><defs
     id="defs1"><linearGradient
       id="linearGradient60"
       inkscape:collect="always"><stop
         style="stop-color:#0800e5;stop-opacity:1;"
         offset="0"
         id="stop60" /><stop
         style="stop-color:#e500ac;stop-opacity:0.46556473;"
         offset="1"
         id="stop61" /></linearGradient><linearGradient
       id="linearGradient47"
       inkscape:collect="always"><stop
         style="stop-color:#ffffff;stop-opacity:1;"
         offset="0"
         id="stop46" /><stop
         style="stop-color:#e500ac;stop-opacity:0;"
         offset="1"
         id="stop47" /></linearGradient><linearGradient
       id="linearGradient45"
       inkscape:collect="always"><stop
         style="stop-color:#ffffff;stop-opacity:1;"
         offset="0"
         id="stop44" /><stop
         style="stop-color:#e500ac;stop-opacity:0;"
         offset="1"
         id="stop45" /></linearGradient><linearGradient
       id="linearGradient42"
       inkscape:collect="always"><stop
         style="stop-color:#ca61d3;stop-opacity:0.94638401;"
         offset="0"
         id="stop42" /><stop
         style="stop-color:#000000;stop-opacity:0;"
         offset="1"
         id="stop43" /></linearGradient><linearGradient
       id="linearGradient38"
       inkscape:collect="always"><stop
         style="stop-color:#0800e5;stop-opacity:1;"
         offset="0"
         id="stop38" /><stop
         style="stop-color:#e500ac;stop-opacity:0.97796142;"
         offset="1"
         id="stop39" /></linearGradient><rect
       x="407.13896"
       y="613.01882"
       width="29.778133"
       height="20.023228"
       id="rect29" /><linearGradient
       id="linearGradient28"
       inkscape:collect="always"><stop
         style="stop-color:#0800e5;stop-opacity:1;"
         offset="0"
         id="stop28" /><stop
         style="stop-color:#e500ac;stop-opacity:0;"
         offset="1"
         id="stop29" /></linearGradient><linearGradient
       id="linearGradient16"
       inkscape:collect="always"><stop
         style="stop-color:#0800e5;stop-opacity:1;"
         offset="0"
         id="stop16" /><stop
         style="stop-color:#e500ac;stop-opacity:0.46666667;"
         offset="1"
         id="stop17" /></linearGradient><rect
       x="338.35328"
       y="490.83008"
       width="142.31168"
       height="52.27776"
       id="rect1" /><linearGradient
       inkscape:collect="always"
       xlink:href="#linearGradient16"
       id="linearGradient17"
       x1="120.01374"
       y1="192.83723"
       x2="99.145599"
       y2="85.479973"
       gradientUnits="userSpaceOnUse"
       gradientTransform="translate(-1.4967093,-96.537753)" /><linearGradient
       inkscape:collect="always"
       xlink:href="#linearGradient28"
       id="linearGradient29"
       x1="-178.59483"
       y1="-26.821321"
       x2="-185.42494"
       y2="-36.947388"
       gradientUnits="userSpaceOnUse"
       gradientTransform="translate(67.952487,68.958758)" /><linearGradient
       inkscape:collect="always"
       xlink:href="#linearGradient45"
       id="linearGradient35"
       gradientUnits="userSpaceOnUse"
       gradientTransform="translate(-5.9868373,102.52459)"
       x1="108.62532"
       y1="193.83362"
       x2="110.53403"
       y2="84.483635" /><linearGradient
       inkscape:collect="always"
       xlink:href="#linearGradient47"
       id="linearGradient36"
       gradientUnits="userSpaceOnUse"
       gradientTransform="translate(-67.23799,-77.22439)"
       x1="-178.59483"
       y1="-26.821321"
       x2="-185.42494"
       y2="-36.947388" /><linearGradient
       inkscape:collect="always"
       xlink:href="#linearGradient38"
       id="linearGradient39"
       x1="100.9884"
       y1="254.37195"
       x2="121.27288"
       y2="22.519285"
       gradientUnits="userSpaceOnUse"
       gradientTransform="translate(0,11.1125)" /><linearGradient
       inkscape:collect="always"
       xlink:href="#linearGradient42"
       id="linearGradient43"
       x1="-170.31363"
       y1="-25.245157"
       x2="-176.2352"
       y2="-35.927959"
       gradientUnits="userSpaceOnUse" /><linearGradient
       inkscape:collect="always"
       xlink:href="#linearGradient60"
       id="linearGradient74"
       gradientUnits="userSpaceOnUse"
       x1="129.27887"
       y1="203.39525"
       x2="123.00793"
       y2="181.52592"
       gradientTransform="matrix(0.66694985,0,0,0.73404997,24.7144,-79.167181)" /></defs><g
     inkscape:label="Layer 1"
     inkscape:groupmode="layer"
     id="layer1"><path
       style="fill:url(#linearGradient17)"
       d="m 56.867938,75.324677 c -1.46835,-0.66695 -2.91525,-2.4262 -3.29404,-4.00516 -1.15925,-4.83231 3.68061,-8.90253 8.16584,-6.8673 l 1.15288,0.52313 2.88414,-1.73773 c 8.43562,-5.08256 17.38828,-12.74075 23.86081,-20.41075 4.48668,-5.31676 9.346013,-12.89259 12.485172,-19.46474 l 1.66255,-3.48071 -0.59444,-0.80229 c -0.80943,-1.09244 -1.19669,-2.35233 -1.19669,-3.89327 0,-4.96748 6.35147,-7.6260698 10.11425,-4.23359 2.08911,1.88351 2.61691,4.52258 1.41901,7.09526 -0.34781,0.74701 -0.79314,1.41456 -0.9896,1.48346 -0.26212,0.0919 0.0889,1.03334 1.3186,3.5366 5.04795,10.27581 10.74345,18.25738 18.67875,26.17609 5.51667,5.50515 12.62916,10.99563 19.06843,14.71986 l 1.58757,0.91819 1.05827,-0.47519 c 2.31862,-1.04113 5.3018,-0.38409 6.99627,1.54093 1.86757,2.12167 2.02753,5.0646 0.40961,7.53576 -1.52964,2.33632 -5.56018,3.04114 -8.12215,1.42031 -1.26042,-0.7974 -2.5911,-2.53036 -2.5911,-3.37442 0,-0.26648 -0.14882,-0.52919 -0.33072,-0.5838 -0.18191,-0.0546 -1.99761,-0.59373 -4.0349,-1.19804 -4.73328,-1.404 -19.20367,-6.52846 -31.3209,-13.88346 1.47641,-1.00875 2.42363,-2.32668 1.70964,-3.78904 -0.0737,-0.15084 11.92165,3.96612 15.7039,5.45826 2.24637,0.88622 4.13655,1.55906 4.20041,1.4952 0.0639,-0.0639 -0.2858,-0.44842 -0.77701,-0.85458 -6.46827,-5.34824 -13.56108,-13.26097 -18.09375,-20.18536 -3.32131,-5.07384 -4.21988,-6.6373 -6.69892,-11.65574 l -2.2942,-4.64429 -1.10687,-0.008 c -0.95658,-0.007 -1.12891,0.0799 -1.26929,0.63919 -0.27605,1.0999 -3.12893,6.91931 -4.89266,9.98027 -2.553679,4.4319 -5.239652,8.37196 -8.315992,12.19875 -2.96409,3.68716 -10.04251,10.953 -12.79175,13.13046 -0.90951,0.72034 -1.65365,1.40688 -1.65365,1.52564 0,0.11876 0.95507,-0.18687 2.12238,-0.67918 3.9666,-1.6729 18.303503,-7.14722 18.091103,-6.46421 -0.48384,1.55591 0.46485,2.74276 1.443409,3.82264 0.27522,0.30371 -5.688582,3.15504 -8.956892,4.78972 -8.72309,4.36293 -16.61124,7.4793 -26.1276,10.32223 -0.1819,0.0543 -0.33073,0.31683 -0.33073,0.58331 0,0.26648 -0.3138,0.96845 -0.69733,1.55994 -1.54342,2.38031 -5.06685,3.40975 -7.65181,2.23562 z"
       id="path3"
       sodipodi:nodetypes="csscssscssssscsscssssssscssscssccssssssssscsscc" /><ellipse
       style="fill:url(#linearGradient29);fill-opacity:0.946384;stroke:none;stroke-width:0.203377;stroke-opacity:0.924138"
       id="ellipse27"
       cx="-114.0574"
       cy="37.074409"
       rx="6.1071191"
       ry="6.0057383"
       transform="rotate(-135.94512)" /><text
       xml:space="preserve"
       transform="scale(0.26458333)"
       id="text29"
       style="text-align:start;letter-spacing:0.42px;word-spacing:0.41px;writing-mode:lr-tb;direction:ltr;white-space:pre;shape-inside:url(#rect29);display:inline;fill:#000000;fill-opacity:0.946384;stroke:none;stroke-opacity:0.924138" /><rect
       style="fill:#ffffff;fill-opacity:1;stroke:none;stroke-width:0.264999;stroke-dasharray:none;stroke-opacity:0.924138"
       id="rect38"
       width="232.7383"
       height="122.73017"
       x="-8.7931681"
       y="-31.243813" /><path
       style="fill:url(#linearGradient17)"
       d="m 56.867938,75.324677 c -1.46835,-0.66695 -2.91525,-2.4262 -3.29404,-4.00516 -1.15925,-4.83231 3.68061,-8.90253 8.16584,-6.8673 l 1.15288,0.52313 2.88414,-1.73773 c 8.43562,-5.08256 17.38828,-12.74075 23.86081,-20.41075 4.48668,-5.31676 9.346013,-12.89259 12.485172,-19.46474 l 1.66255,-3.48071 -0.59444,-0.80229 c -0.80943,-1.09244 -1.19669,-2.35233 -1.19669,-3.89327 0,-4.96748 6.35147,-7.6260698 10.11425,-4.23359 2.08911,1.88351 2.61691,4.52258 1.41901,7.09526 -0.34781,0.74701 -0.79314,1.41456 -0.9896,1.48346 -0.26212,0.0919 0.0889,1.03334 1.3186,3.5366 5.04795,10.27581 10.74345,18.25738 18.67875,26.17609 5.51667,5.50515 12.62916,10.99563 19.06843,14.71986 l 1.58757,0.91819 1.05827,-0.47519 c 2.31862,-1.04113 5.3018,-0.38409 6.99627,1.54093 1.86757,2.12167 2.02753,5.0646 0.40961,7.53576 -1.52964,2.33632 -5.56018,3.04114 -8.12215,1.42031 -1.26042,-0.7974 -2.5911,-2.53036 -2.5911,-3.37442 0,-0.26648 -0.14882,-0.52919 -0.33072,-0.5838 -0.18191,-0.0546 -2.07092,-0.386546 -4.0349,-1.19804 -4.64844,-1.920681 -16.33684,-7.699702 -30.18176,-12.811712 -0.1136,-1.00875 -0.99395,-3.12582 -2.19571,-4.58818 -0.10659,-0.129698 14.68786,3.693512 18.47011,5.185652 2.24637,0.88622 4.13655,1.55906 4.20041,1.4952 0.0639,-0.0639 -0.2858,-0.44842 -0.77701,-0.85458 -6.46827,-5.34824 -13.56108,-13.26097 -18.09375,-20.18536 -3.32131,-5.07384 -4.21988,-6.6373 -6.69892,-11.65574 l -2.2942,-4.64429 -1.10687,-0.008 c -0.95658,-0.007 -1.12891,0.0799 -1.26929,0.63919 -0.27605,1.0999 -3.12893,6.91931 -4.89266,9.98027 -2.553679,4.4319 -5.239652,8.37196 -8.315992,12.19875 -2.96409,3.68716 -10.04251,10.953 -12.79175,13.13046 -0.90951,0.72034 -1.65365,1.40688 -1.65365,1.52564 0,0.11876 0.95507,-0.18687 2.12238,-0.67918 3.9666,-1.6729 19.807642,-7.04657 19.777822,-6.331918 -0.0526,1.260217 -0.14212,3.354282 -0.0449,4.665999 0.0303,0.408738 -6.167645,2.460022 -9.435955,4.094702 -8.72309,4.36293 -16.330607,7.198667 -25.846967,10.041597 -0.1819,0.0543 -0.33073,0.31683 -0.33073,0.58331 0,0.26648 -0.3138,0.96845 -0.69733,1.55994 -1.54342,2.38031 -5.06685,3.40975 -7.65181,2.23562 z"
       id="path31"
       sodipodi:nodetypes="csscssscssssscsscssssssscssscssccssssssssscsscc" /><rect
       style="fill:url(#linearGradient39);stroke:none;stroke-width:0.264999;stroke-dasharray:none;stroke-opacity:0.924138"
       id="rect37"
       width="232.7383"
       height="122.73017"
       x="-5.238483"
       y="88.193039" /><path
       style="fill:#ffffff;fill-opacity:0.94638401"
       d="m 52.37781,165.12724 c -1.46835,-0.66695 -2.91525,-2.4262 -3.29404,-4.00516 -1.15925,-4.83231 3.68061,-8.90253 8.16584,-6.8673 l 1.15288,0.52313 2.88414,-1.73773 c 8.43562,-5.08256 17.38828,-12.74075 23.86081,-20.41075 4.48668,-5.31676 9.346013,-12.89259 12.485172,-19.46474 l 1.66255,-3.48071 -0.59444,-0.80229 c -0.80943,-1.09244 -1.19669,-2.35233 -1.19669,-3.89327 0,-4.96748 6.351468,-7.626072 10.114248,-4.23359 2.08911,1.88351 2.61691,4.52258 1.41901,7.09526 -0.34781,0.74701 -0.79314,1.41456 -0.9896,1.48346 -0.26212,0.0919 0.0889,1.03334 1.3186,3.5366 5.04795,10.27581 10.74345,18.25738 18.67875,26.17609 5.51667,5.50515 12.62916,10.99563 19.06843,14.71986 l 1.58757,0.91819 1.05827,-0.47519 c 2.31862,-1.04113 5.3018,-0.38409 6.99627,1.54093 1.86757,2.12167 2.02753,5.0646 0.40961,7.53576 -1.52964,2.33632 -5.56018,3.04114 -8.12215,1.42031 -1.26042,-0.7974 -2.5911,-2.53036 -2.5911,-3.37442 0,-0.26648 -0.14882,-0.52919 -0.33072,-0.5838 -0.18191,-0.0546 -1.99761,-0.59373 -4.0349,-1.19804 -4.73328,-1.404 -19.20367,-6.52846 -31.3209,-13.88346 1.47641,-1.00875 2.42363,-2.32668 1.70964,-3.78904 -0.0737,-0.15084 11.92165,3.96612 15.7039,5.45826 2.24637,0.88622 4.13655,1.55906 4.20041,1.4952 0.0639,-0.0639 -0.2858,-0.44842 -0.77701,-0.85458 -6.46827,-5.34824 -13.56108,-13.26097 -18.09375,-20.18536 -3.32131,-5.07384 -4.21988,-6.6373 -6.69892,-11.65574 l -2.2942,-4.64429 -1.10687,-0.008 c -0.95658,-0.007 -1.12891,0.0799 -1.26929,0.63919 -0.27605,1.0999 -3.128928,6.91931 -4.892658,9.98027 -2.553679,4.4319 -5.239652,8.37196 -8.315992,12.19875 -2.96409,3.68716 -10.04251,10.953 -12.79175,13.13046 -0.90951,0.72034 -1.65365,1.40688 -1.65365,1.52564 0,0.11876 0.95507,-0.18687 2.12238,-0.67918 3.9666,-1.6729 18.303503,-7.14722 18.091103,-6.46421 -0.48384,1.55591 0.46485,2.74276 1.443409,3.82264 0.27522,0.30371 -5.688582,3.15504 -8.956892,4.78972 -8.72309,4.36293 -16.61124,7.4793 -26.1276,10.32223 -0.1819,0.0543 -0.33073,0.31683 -0.33073,0.58331 0,0.26648 -0.3138,0.96845 -0.69733,1.55994 -1.54342,2.38031 -5.06685,3.40975 -7.65181,2.23562 z"
       id="path33"
       sodipodi:nodetypes="csscssscssssscsscssssssscssscssccssssssssscsscc" /><ellipse
       style="fill:url(#linearGradient43);fill-opacity:0.94638401;stroke:none;stroke-width:0.203377;stroke-opacity:0.924138"
       id="ellipse33"
       cx="-173.27441"
       cy="-30.586563"
       rx="6.1071191"
       ry="6.0057383"
       transform="rotate(-135.94512)" /><rect
       style="fill:#000000;fill-opacity:1;stroke:none;stroke-width:0.264999;stroke-dasharray:none;stroke-opacity:0.924138"
       id="rect36"
       width="232.7383"
       height="122.73017"
       x="-7.4835467"
       y="187.83702" /><path
       style="fill:url(#linearGradient35)"
       d="m 52.37781,274.38702 c -1.46835,-0.66695 -2.91525,-2.4262 -3.29404,-4.00516 -1.15925,-4.83231 3.68061,-8.90253 8.16584,-6.8673 l 1.15288,0.52313 2.88414,-1.73773 c 8.43562,-5.08256 17.38828,-12.74075 23.86081,-20.41075 4.48668,-5.31676 9.346013,-12.89259 12.485172,-19.46474 l 1.66255,-3.48071 -0.59444,-0.80229 c -0.80943,-1.09244 -1.19669,-2.35233 -1.19669,-3.89327 0,-4.96748 6.351468,-7.62607 10.114248,-4.23359 2.08911,1.88351 2.61691,4.52258 1.41901,7.09526 -0.34781,0.74701 -0.79314,1.41456 -0.9896,1.48346 -0.26212,0.0919 0.0889,1.03334 1.3186,3.5366 5.04795,10.27581 10.74345,18.25738 18.67875,26.17609 5.51667,5.50515 12.62916,10.99563 19.06843,14.71986 l 1.58757,0.91819 1.05827,-0.47519 c 2.31862,-1.04113 5.3018,-0.38409 6.99627,1.54093 1.86757,2.12167 2.02753,5.0646 0.40961,7.53576 -1.52964,2.33632 -5.56018,3.04114 -8.12215,1.42031 -1.26042,-0.7974 -2.5911,-2.53036 -2.5911,-3.37442 0,-0.26648 -0.14882,-0.52919 -0.33072,-0.5838 -0.18191,-0.0546 -1.99761,-0.59373 -4.0349,-1.19804 -4.73328,-1.404 -19.20367,-6.52846 -31.3209,-13.88346 1.47641,-1.00875 2.42363,-2.32668 1.70964,-3.78904 -0.0737,-0.15084 11.92165,3.96612 15.7039,5.45826 2.24637,0.88622 4.13655,1.55906 4.20041,1.4952 0.0639,-0.0639 -0.2858,-0.44842 -0.77701,-0.85458 -6.46827,-5.34824 -13.56108,-13.26097 -18.09375,-20.18536 -3.32131,-5.07384 -4.21988,-6.6373 -6.69892,-11.65574 l -2.2942,-4.64429 -1.10687,-0.008 c -0.95658,-0.007 -1.12891,0.0799 -1.26929,0.63919 -0.27605,1.0999 -3.128928,6.91931 -4.892658,9.98027 -2.553679,4.4319 -5.239652,8.37196 -8.315992,12.19875 -2.96409,3.68716 -10.04251,10.953 -12.79175,13.13046 -0.90951,0.72034 -1.65365,1.40688 -1.65365,1.52564 0,0.11876 0.95507,-0.18687 2.12238,-0.67918 3.9666,-1.6729 18.303503,-7.14722 18.091103,-6.46421 -0.48384,1.55591 0.46485,2.74276 1.443409,3.82264 0.27522,0.30371 -5.688582,3.15504 -8.956892,4.78972 -8.72309,4.36293 -16.61124,7.4793 -26.1276,10.32223 -0.1819,0.0543 -0.33073,0.31683 -0.33073,0.58331 0,0.26648 -0.3138,0.96845 -0.69733,1.55994 -1.54342,2.38031 -5.06685,3.40975 -7.65181,2.23562 z"
       id="path34"
       sodipodi:nodetypes="csscssscssssscsscssssssscssscssccssssssssscsscc" /><ellipse
       style="fill:url(#linearGradient36);fill-opacity:0.946384;stroke:none;stroke-width:0.203377;stroke-opacity:0.924138"
       id="ellipse34"
       cx="-249.24789"
       cy="-109.10874"
       rx="6.1071191"
       ry="6.0057383"
       transform="rotate(-135.94512)" /><path
       style="fill:url(#linearGradient74);fill-opacity:1;stroke-width:0.699696"
       d="m 102.75653,73.062862 -1.41171,-0.110049 v -5.340977 -5.340977 l 3.8822,-0.09711 c 4.34064,-0.108581 4.67633,-0.199706 5.38509,-1.461876 0.32618,-0.580868 0.37787,-0.903153 0.3161,-1.970828 -0.0697,-1.204283 -0.11529,-1.318956 -0.80723,-2.029333 l -0.7334,-0.752922 h -3.76708 c -2.75448,0 -3.84894,-0.06592 -4.07166,-0.245136 -0.2634,-0.211972 -0.2978,-0.546955 -0.25431,-2.476274 l 0.0503,-2.231137 c 0.89536,-1.123121 1.84895,-2.208561 4.21315,-2.38125 1.70559,0.230711 3.1638,1.286001 4.61003,2.38125 l 0.90361,0.238212 c 4.95708,1.306797 6.02577,9.279377 2.54699,13.327736 -0.49053,0.570841 -0.89187,1.093059 -0.89187,1.160489 0,0.06746 0.83379,1.600016 1.85287,3.405735 1.01909,1.805726 1.85288,3.382979 1.85288,3.505015 0,0.408792 -0.77933,0.530909 -2.85769,0.447785 l -2.06358,-0.08253 -1.70979,-2.998036 -1.7098,-2.998037 -1.16761,0.05682 -1.1676,0.05682 v 2.782754 c 0,2.530293 -0.0311,2.8078 -0.34254,3.058919 -0.18839,0.151897 -0.54573,0.260147 -0.79408,0.240563 -0.24835,-0.0196 -1.08682,-0.08514 -1.86326,-0.145665 z"
       id="path53"
       sodipodi:nodetypes="ccccsscscssscccsssssscccccssscc" /></g></svg>
