<?xml version="1.0" encoding="UTF-8" standalone="no"?>
<!-- Created with Inkscape (http://www.inkscape.org/) -->

<svg
   width="297mm"
   height="210mm"
   viewBox="0 0 297 210"
   version="1.1"
   id="svg1"
   xml:space="preserve"
   sodipodi:docname="ResearchCamp-logo v1.2.svg"
   inkscape:version="1.4.3 (0d15f75, 2025-12-25)"
   inkscape:export-filename="ResearchCamp-logo v1.png"
   inkscape:export-xdpi="96"
   inkscape:export-ydpi="96"
   xmlns:inkscape="http://www.inkscape.org/namespaces/inkscape"
   xmlns:sodipodi="http://sodipodi.sourceforge.net/DTD/sodipodi-0.dtd"
   xmlns:xlink="http://www.w3.org/1999/xlink"
   xmlns="http://www.w3.org/2000/svg"
   xmlns:svg="http://www.w3.org/2000/svg"><sodipodi:namedview
     id="namedview1"
     pagecolor="#ffffff"
     bordercolor="#000000"
     borderopacity="0.25"
     inkscape:showpageshadow="2"
     inkscape:pageopacity="0.0"
     inkscape:pagecheckerboard="0"
     inkscape:deskcolor="#d1d1d1"
     inkscape:document-units="mm"
     inkscape:zoom="0.25"
     inkscape:cx="616"
     inkscape:cy="130"
     inkscape:window-width="1920"
     inkscape:window-height="991"
     inkscape:window-x="-9"
     inkscape:window-y="-9"
     inkscape:window-maximized="1"
     inkscape:current-layer="g70"
     showguides="true"><sodipodi:guide
       position="121.17917,221.64166"
       orientation="0,-1"
       id="guide34"
       inkscape:locked="false" /></sodipodi:namedview><defs
     id="defs1"><marker
       style="overflow:visible"
       id="Triangle"
       refX="0"
       refY="0"
       orient="auto-start-reverse"
       inkscape:stockid="Triangle arrow"
       markerWidth="1"
       markerHeight="1"
       viewBox="0 0 1 1"
       inkscape:isstock="true"
       inkscape:collect="always"
       preserveAspectRatio="xMidYMid"><path
         transform="scale(0.5)"
         style="fill:context-stroke;fill-rule:evenodd;stroke:context-stroke;stroke-width:1pt"
         d="M 5.77,0 -2.88,5 V -5 Z"
         id="path135" /></marker><linearGradient
       id="linearGradient70"
       inkscape:collect="always"><stop
         style="stop-color:#0e2957;stop-opacity:1;"
         offset="0"
         id="stop70" /><stop
         style="stop-color:#2fd6de;stop-opacity:1;"
         offset="1"
         id="stop71" /></linearGradient><linearGradient
       id="linearGradient34"
       inkscape:collect="always"><stop
         style="stop-color:#0e2957;stop-opacity:1;"
         offset="0"
         id="stop34" /><stop
         style="stop-color:#2fd6de;stop-opacity:1;"
         offset="1"
         id="stop35" /></linearGradient><rect
       x="494"
       y="486"
       width="198"
       height="248"
       id="rect34" /><rect
       x="407.13895"
       y="613.0188"
       width="29.778133"
       height="20.023228"
       id="rect29" /><rect
       x="338.35327"
       y="490.83008"
       width="142.31168"
       height="52.27776"
       id="rect1" /><linearGradient
       inkscape:collect="always"
       xlink:href="#linearGradient34"
       id="linearGradient35"
       x1="45.843132"
       y1="185.77373"
       x2="256.6088"
       y2="21.105549"
       gradientUnits="userSpaceOnUse" /><linearGradient
       inkscape:collect="always"
       xlink:href="#linearGradient70"
       id="linearGradient71"
       x1="119.94924"
       y1="142.81131"
       x2="184.18929"
       y2="142.81131"
       gradientUnits="userSpaceOnUse" /><linearGradient
       inkscape:collect="always"
       xlink:href="#linearGradient70"
       id="linearGradient72"
       gradientUnits="userSpaceOnUse"
       x1="119.94924"
       y1="142.81131"
       x2="184.18929"
       y2="142.81131"
       gradientTransform="translate(0,-49.741688)" /><linearGradient
       inkscape:collect="always"
       xlink:href="#linearGradient70"
       id="linearGradient73"
       gradientUnits="userSpaceOnUse"
       x1="119.94924"
       y1="142.81131"
       x2="184.18929"
       y2="142.81131" /><linearGradient
       inkscape:collect="always"
       xlink:href="#linearGradient70"
       id="linearGradient74"
       gradientUnits="userSpaceOnUse"
       x1="119.94924"
       y1="142.81131"
       x2="184.18929"
       y2="142.81131" /><linearGradient
       inkscape:collect="always"
       xlink:href="#linearGradient70"
       id="linearGradient75"
       gradientUnits="userSpaceOnUse"
       x1="119.94924"
       y1="142.81131"
       x2="184.18929"
       y2="142.81131" /><linearGradient
       inkscape:collect="always"
       xlink:href="#linearGradient70"
       id="linearGradient76"
       gradientUnits="userSpaceOnUse"
       x1="119.94924"
       y1="142.81131"
       x2="184.18929"
       y2="142.81131" /><linearGradient
       inkscape:collect="always"
       xlink:href="#linearGradient70"
       id="linearGradient77"
       gradientUnits="userSpaceOnUse"
       x1="119.94924"
       y1="142.81131"
       x2="184.18929"
       y2="142.81131" /><linearGradient
       inkscape:collect="always"
       xlink:href="#linearGradient70"
       id="linearGradient78"
       gradientUnits="userSpaceOnUse"
       x1="119.94924"
       y1="142.81131"
       x2="184.18929"
       y2="142.81131" /><linearGradient
       inkscape:collect="always"
       xlink:href="#linearGradient70"
       id="linearGradient79"
       gradientUnits="userSpaceOnUse"
       x1="119.94924"
       y1="142.81131"
       x2="184.18929"
       y2="142.81131" /><linearGradient
       inkscape:collect="always"
       xlink:href="#linearGradient70"
       id="linearGradient80"
       gradientUnits="userSpaceOnUse"
       x1="119.94924"
       y1="142.81131"
       x2="184.18929"
       y2="142.81131" /><linearGradient
       inkscape:collect="always"
       xlink:href="#linearGradient70"
       id="linearGradient81"
       gradientUnits="userSpaceOnUse"
       x1="119.94924"
       y1="142.81131"
       x2="184.18929"
       y2="142.81131" /></defs><g
     inkscape:label="Layer 1"
     inkscape:groupmode="layer"
     id="layer1"><text
       xml:space="preserve"
       transform="scale(0.26458333)"
       id="text29"
       style="text-align:start;letter-spacing:0.42px;word-spacing:0.41px;writing-mode:lr-tb;direction:ltr;white-space:pre;shape-inside:url(#rect29);display:inline;fill:#000000;fill-opacity:0.946384;stroke:none;stroke-opacity:0.924138" /><path
       style="fill:url(#linearGradient35);fill-opacity:1;stroke-width:1.38987"
       d="m 30.066947,194.22402 c -3.756976,-0.74151 -7.74313,-3.34112 -9.87947,-6.44298 -5.813421,-8.44083 -1.78407,-20.32526 7.914597,-23.34381 3.894402,-1.21208 8.700991,-0.85065 12.106393,0.91036 0.617449,0.3193 1.399122,0.58054 1.737051,0.58054 1.487615,0 19.330575,-18.15301 31.085465,-31.62562 23.32754,-26.73635 44.255077,-55.640309 63.661277,-87.925446 4.43476,-7.377882 4.21708,-6.699653 2.73611,-8.524797 -5.37017,-6.618208 -4.93332,-15.539424 1.03745,-21.186335 4.82515,-4.563417 11.48919,-5.541673 17.68547,-2.596155 2.51068,1.193495 5.49988,4.1006 6.76375,6.577985 1.15351,2.261092 1.94864,6.435267 1.64556,8.638831 -0.47164,3.42922 -2.32653,7.628309 -3.97353,8.995192 -0.33089,0.274616 -0.60162,0.786762 -0.60162,1.138104 0,0.625601 4.5408,8.324816 11.39022,19.312823 17.89716,28.711083 39.54381,57.529228 61.04563,81.269938 11.28467,12.45971 25.06475,26.1356 26.25868,26.06016 0.42812,-0.0271 1.85404,-0.51417 3.16869,-1.08249 3.21179,-1.38841 8.21154,-1.46502 11.52625,-0.1766 4.18552,1.62691 7.73828,5.40579 8.92712,9.49528 1.92894,6.63526 -0.48284,13.53066 -6.03869,17.26502 -2.76557,1.85886 -4.15195,2.31445 -7.82665,2.57192 -4.88949,0.34258 -8.85112,-1.33262 -12.44136,-5.26091 -2.2913,-2.50705 -3.36103,-5.23536 -3.66231,-9.34062 l -0.2294,-3.12577 -4.14474,-2.07649 c -20.78578,-10.41353 -45.03765,-18.17245 -66.98583,-21.43084 -2.91808,-0.43321 -5.3656,-0.9677 -5.43896,-1.18775 -0.0734,-0.22005 0.63114,-1.29022 1.56552,-2.37812 0.93439,-1.08793 2.23887,-2.88819 2.89885,-4.0006 l 1.19996,-2.02256 1.9885,0.0671 c 2.59401,0.0877 11.20644,1.87166 20.19151,4.1826 11.29593,2.9053 22.03647,6.66336 35.75534,12.51064 1.56356,0.66642 2.94898,1.10553 3.07871,0.9758 0.12967,-0.12967 -2.91255,-3.51153 -6.76064,-7.51508 -26.94961,-28.03858 -52.40675,-61.70585 -75.71443,-100.132893 -2.63754,-4.348496 -5.11221,-8.475663 -5.49925,-9.171494 l -0.70372,-1.265146 -4.19076,0.05797 c -2.30493,0.03188 -4.31361,0.187494 -4.46375,0.345803 -0.15014,0.158309 -1.44734,2.313197 -2.88265,4.78864 -8.22513,14.185641 -22.45864,35.869108 -33.40726,50.89296 -15.855177,21.7567 -30.693647,39.53175 -47.692897,57.13148 -2.343,2.42577 -4.10862,4.46095 -3.9236,4.52263 0.18503,0.0617 2.13262,-0.65911 4.32799,-1.60172 11.57654,-4.9706 23.65567,-9.08627 34.88151,-11.88501 10.497007,-2.61705 22.003017,-4.7698 23.147067,-4.33079 0.47518,0.18235 0.57199,0.9957 0.57199,4.80605 0,2.90584 -0.14649,4.67708 -0.39974,4.83361 -0.21987,0.13593 -2.72573,0.64707 -5.56858,1.136 -21.192407,3.64469 -41.131447,10.16436 -62.246947,20.35352 -4.8553,2.3429 -5.3938,2.75558 -5.10376,3.9112 0.35727,1.42346 -0.54734,5.68577 -1.72051,8.10673 -1.19174,2.45926 -4.18612,5.50947 -6.635132,6.75887 -2.975727,1.5181 -6.91316,2.07311 -10.160474,1.4322 z"
       id="path12" /><g
       id="g70"
       style="fill:url(#linearGradient71)"><g
         id="g72"
         style="fill:url(#linearGradient81);stroke-width:3.7;stroke-dasharray:none;paint-order:stroke fill markers"
         transform="translate(-1.5875)"><circle
           style="fill:#3d52b6;fill-opacity:1;stroke-width:3.7;stroke-dasharray:none;stroke-opacity:0.924138;paint-order:stroke fill markers"
           id="circle64"
           cx="122.8316"
           cy="125.63455"
           r="1.7773423" /><path
           style="fill:url(#linearGradient73);stroke-width:3.7;stroke-dasharray:none;paint-order:stroke fill markers"
           d="m 121.47683,178.27245 c -0.90385,-0.19608 -1.52759,-1.19678 -1.52759,-2.45082 0,-1.2461 0.77911,-2.35984 2.00646,-2.86823 1.11449,-0.46164 2.75861,0.0355 3.41119,1.03147 l 0.45885,0.70028 h 7.08344 7.08344 v -9.31458 c 0,-5.86526 0.11136,-9.52265 0.30071,-9.87644 0.26321,-0.49183 0.62771,-0.56188 2.92359,-0.56188 2.55103,0 2.64275,-0.0236 3.34786,-0.86157 2.3905,-2.84096 6.63707,0.12058 4.92374,3.4338 -0.90892,1.75764 -3.11558,1.97841 -4.77652,0.47785 -1.0053,-0.90823 -1.29978,-1.01669 -2.76043,-1.01669 h -1.63507 v 9.44073 c 0,9.05341 -0.0238,9.46455 -0.58098,10.02168 -0.55166,0.55168 -0.96827,0.58098 -8.26231,0.58098 -7.39145,0 -7.69695,0.0223 -8.09463,0.59004 -0.4267,0.60919 -2.52682,0.97164 -3.90175,0.67338 z m 2.10345,-2.42934 c 0,-0.51486 -0.17703,-0.74749 -0.61661,-0.81021 -0.73831,-0.1054 -1.14325,0.70445 -0.64966,1.29919 0.52083,0.62756 1.26627,0.3397 1.26627,-0.48898 z m 26.0856,-19.5574 c 0.22505,-0.58646 -0.23176,-1.13357 -0.84831,-1.01597 -0.30175,0.0575 -0.5877,0.39533 -0.63898,0.75479 -0.0746,0.52284 0.0477,0.65062 0.6225,0.65062 0.39344,0 0.78259,-0.17524 0.86479,-0.38944 z m 11.31676,21.98564 c -1.60151,-0.34471 -2.06205,-2.90646 -0.79353,-4.41401 0.40372,-0.47981 1.10913,-0.95476 1.56757,-1.05545 1.04048,-0.22852 2.76664,0.45975 3.20439,1.27771 0.31642,0.59122 0.51319,0.60555 8.31713,0.60555 h 7.99305 l -1.85398,-2.68697 c -9.50774,-13.77958 -12.70013,-18.57143 -12.70013,-19.06316 0,-0.42439 0.62134,-0.90751 2.3553,-1.83135 5.41387,-2.88445 8.89003,-7.07156 10.25999,-12.35843 0.63141,-2.43667 0.58291,-2.90946 -0.41497,-4.04599 -2.63758,-3.00403 1.41607,-6.87643 4.24106,-4.05144 1.37573,1.37572 1.37432,2.75055 -0.004,4.12909 -0.67673,0.67674 -1.057,1.38278 -1.19686,2.22221 -1.10921,6.65718 -5.01023,12.10824 -11.23854,15.70408 l -1.3722,0.79222 2.63101,3.84112 c 1.44706,2.11262 4.77694,6.97263 7.39975,10.80005 2.70287,3.94426 4.76872,7.24313 4.76872,7.61498 0,0.36083 -0.25284,0.79138 -0.56187,0.95676 -0.35179,0.18827 -3.84744,0.30071 -9.34938,0.30071 -8.54806,0 -8.80534,0.0167 -9.44173,0.61461 -0.65985,0.61989 -2.49251,0.9314 -3.81054,0.64771 z m 2.10345,-2.42824 c 0,-0.51486 -0.17705,-0.74749 -0.61662,-0.81021 -0.73831,-0.1054 -1.14326,0.70445 -0.64967,1.29919 0.52083,0.62756 1.26629,0.3397 1.26629,-0.48898 z m 18.7362,-43.10179 c 0,-0.71453 -0.44897,-1.0589 -1.08932,-0.83554 -0.1997,0.0696 -0.36309,0.44256 -0.36309,0.82867 0,0.55515 0.15191,0.702 0.7262,0.702 0.57231,0 0.72621,-0.14731 0.72621,-0.69513 z m -42.30693,11.73596 c -1.63173,-0.65848 -2.12134,-3.37451 -0.85467,-4.74127 1.32724,-1.43211 3.15562,-1.37727 4.57024,0.1371 l 0.82595,0.88418 6.0288,-0.12954 c 6.84957,-0.14717 8.13249,-0.43525 9.92609,-2.22885 2.36975,-2.36973 2.37845,-6.81388 0.0178,-9.0658 -2.22057,-2.11825 -2.1269,-2.10721 -18.84365,-2.22025 l -14.92859,-0.1009 -0.91076,0.88274 c -2.22794,2.1594 -5.40817,1.02205 -5.39083,-1.92792 0.0163,-2.77458 3.01949,-3.92648 5.17051,-1.98317 l 1.11186,1.00451 15.37393,0.0849 15.37392,0.0847 1.88815,0.927 c 1.03847,0.50985 2.08954,1.09808 2.33568,1.30718 1.82628,1.55139 3.10757,5.0282 2.75078,7.46426 -0.46875,3.20047 -2.22545,5.53627 -5.19507,6.90771 -1.75541,0.81068 -1.86612,0.82316 -8.16305,0.92034 l -6.38352,0.0985 -1.09729,0.99133 c -1.13433,1.02481 -2.26373,1.24507 -3.60625,0.70329 z m 2.16291,-2.7264 c -0.0548,-0.38375 -0.33529,-0.65173 -0.74287,-0.70961 -0.86286,-0.12252 -1.22792,0.76374 -0.52601,1.27699 0.68691,0.50228 1.37744,0.19351 1.26888,-0.56738 z m -17.95274,-15.72176 c 0,-0.57628 -0.14639,-0.72621 -0.70907,-0.72621 -0.38998,0 -0.79372,0.13698 -0.89718,0.3044 -0.33746,0.54601 0.11924,1.14802 0.87092,1.14802 0.5907,0 0.73533,-0.14283 0.73533,-0.72621 z m -2.32387,-13.11186 c -1.13395,-0.80293 -1.43322,-1.32567 -1.44318,-2.52074 -0.0118,-1.40666 0.3689,-2.11235 1.43736,-2.66487 1.40078,-0.72437 2.48814,-0.55651 3.74386,0.57796 l 1.12536,1.01669 h 16.63241 16.6324 l 1.12536,-1.01669 c 1.50539,-1.36005 3.08781,-1.42113 4.34135,-0.16759 0.68297,0.68297 0.8491,1.10093 0.8491,2.13621 0,2.95096 -3.19457,4.13045 -5.24425,1.93627 l -0.79851,-0.85482 h -16.88086 -16.88085 l -0.79473,0.8894 c -1.01029,1.1306 -2.76188,1.43502 -3.84482,0.66818 z m 2.26661,-2.60992 c 0.10858,-0.76088 -0.58197,-1.06965 -1.26888,-0.56736 -0.70191,0.51324 -0.33684,1.3995 0.52601,1.27698 0.40758,-0.0579 0.68812,-0.32585 0.74287,-0.70962 z m 40.0551,0.28413 c 0.2167,-0.56474 -0.6418,-1.30094 -1.24649,-1.0689 -0.4209,0.16151 -0.55525,1.01157 -0.21384,1.35298 0.36857,0.36856 1.27775,0.19169 1.46033,-0.28408 z"
           id="path43" /><circle
           style="fill:url(#linearGradient74);fill-opacity:1;stroke-width:3.7;stroke-dasharray:none;stroke-opacity:0.924138;paint-order:stroke fill markers"
           id="path63"
           cx="163.04778"
           cy="110.28876"
           r="1.7773423" /><circle
           style="fill:url(#linearGradient75);fill-opacity:1;stroke-width:3.7;stroke-dasharray:none;stroke-opacity:0.924138;paint-order:stroke fill markers"
           id="circle63"
           cx="122.8316"
           cy="110.28876"
           r="1.7773423" /><circle
           style="fill:url(#linearGradient76);fill-opacity:1;stroke-width:3.7;stroke-dasharray:none;stroke-opacity:0.924138;paint-order:stroke fill markers"
           id="circle65"
           cx="140.82309"
           cy="141.50937"
           r="1.7773423" /><circle
           style="fill:url(#linearGradient77);fill-opacity:1;stroke-width:3.7;stroke-dasharray:none;stroke-opacity:0.924138;paint-order:stroke fill markers"
           id="circle66"
           cx="181.56837"
           cy="132.51366"
           r="1.7773423" /><circle
           style="fill:url(#linearGradient78);fill-opacity:1;stroke-width:3.7;stroke-dasharray:none;stroke-opacity:0.924138;paint-order:stroke fill markers"
           id="circle67"
           cx="162.51863"
           cy="175.90474"
           r="1.7773423" /><circle
           style="fill:url(#linearGradient79);fill-opacity:1;stroke-width:3.7;stroke-dasharray:none;stroke-opacity:0.924138;paint-order:stroke fill markers"
           id="circle68"
           cx="122.8316"
           cy="175.90474"
           r="1.7773423" /><circle
           style="fill:url(#linearGradient80);fill-opacity:1;stroke-width:3.7;stroke-dasharray:none;stroke-opacity:0.924138;paint-order:stroke fill markers"
           id="circle69"
           cx="149.28964"
           cy="155.79668"
           r="1.7773423" /><circle
           style="fill:url(#linearGradient72);fill-opacity:1;stroke-width:3.7;stroke-dasharray:none;stroke-opacity:0.924138;paint-order:stroke fill markers"
           id="circle71"
           cx="122.8316"
           cy="126.16364"
           r="1.7773423" /></g></g></g></svg>
