<?xml version="1.0" encoding="UTF-8" standalone="no"?>
<!-- Created with Inkscape (http://www.inkscape.org/) -->

<svg
   width="297mm"
   height="210mm"
   viewBox="0 0 297 210"
   version="1.1"
   id="svg1"
   xml:space="preserve"
   sodipodi:docname="ResearchCamp-logo v1.2.3.svg"
   inkscape:version="1.4.3 (0d15f75, 2025-12-25)"
   inkscape:export-filename="assets\ResearchCamp-logo1.png"
   inkscape:export-xdpi="96"
   inkscape:export-ydpi="96"
   xmlns:inkscape="http://www.inkscape.org/namespaces/inkscape"
   xmlns:sodipodi="http://sodipodi.sourceforge.net/DTD/sodipodi-0.dtd"
   xmlns="http://www.w3.org/2000/svg"
   xmlns:svg="http://www.w3.org/2000/svg"><sodipodi:namedview
     id="namedview1"
     pagecolor="#ffffff"
     bordercolor="#000000"
     borderopacity="0.25"
     inkscape:showpageshadow="2"
     inkscape:pageopacity="0.0"
     inkscape:pagecheckerboard="0"
     inkscape:deskcolor="#d1d1d1"
     inkscape:document-units="mm"
     inkscape:zoom="0.35355339"
     inkscape:cx="-25.455844"
     inkscape:cy="475.17576"
     inkscape:window-width="1920"
     inkscape:window-height="991"
     inkscape:window-x="-9"
     inkscape:window-y="-9"
     inkscape:window-maximized="1"
     inkscape:current-layer="layer1"
     showguides="true"><sodipodi:guide
       position="121.17917,221.64166"
       orientation="0,-1"
       id="guide34"
       inkscape:locked="false" /></sodipodi:namedview><defs
     id="defs1"><inkscape:perspective
       sodipodi:type="inkscape:persp3d"
       inkscape:vp_x="106.46676 : 102.82672 : 1"
       inkscape:vp_y="0 : 147.09871 : 0"
       inkscape:vp_z="412.6392 : 102.82672 : 1"
       inkscape:persp3d-origin="259.55298 : 97.678266 : 1"
       id="perspective87" /><marker
       style="overflow:visible"
       id="Triangle"
       refX="0"
       refY="0"
       orient="auto-start-reverse"
       inkscape:stockid="Triangle arrow"
       markerWidth="1"
       markerHeight="1"
       viewBox="0 0 1 1"
       inkscape:isstock="true"
       inkscape:collect="always"
       preserveAspectRatio="xMidYMid"><path
         transform="scale(0.5)"
         style="fill:context-stroke;fill-rule:evenodd;stroke:context-stroke;stroke-width:1pt"
         d="M 5.77,0 -2.88,5 V -5 Z"
         id="path135" /></marker><rect
       x="494"
       y="486"
       width="198"
       height="248"
       id="rect34" /><rect
       x="407.13895"
       y="613.0188"
       width="29.778133"
       height="20.023228"
       id="rect29" /><rect
       x="338.35327"
       y="490.83008"
       width="142.31168"
       height="52.27776"
       id="rect1" /></defs><g
     inkscape:label="Layer 1"
     inkscape:groupmode="layer"
     id="layer1"><text
       xml:space="preserve"
       transform="scale(0.26458333)"
       id="text29"
       style="text-align:start;letter-spacing:0.42px;word-spacing:0.41px;writing-mode:lr-tb;direction:ltr;white-space:pre;shape-inside:url(#rect29);display:inline;fill:#000000;fill-opacity:0.946384;stroke:none;stroke-opacity:0.924138" /><path
       style="fill:#000000;fill-opacity:1;stroke-width:1.38987"
       d="m 30.066947,194.22402 c -3.756976,-0.74151 -7.74313,-3.34112 -9.87947,-6.44298 -5.813421,-8.44083 -1.78407,-20.32526 7.914597,-23.34381 3.894402,-1.21208 8.700991,-0.85065 12.106393,0.91036 0.617449,0.3193 1.399122,0.58054 1.737051,0.58054 1.487615,0 19.330575,-18.15301 31.085465,-31.62562 23.32754,-26.73635 44.255077,-55.640309 63.661277,-87.925446 4.43476,-7.377882 4.21708,-6.699653 2.73611,-8.524797 -5.37017,-6.618208 -4.93332,-15.539424 1.03745,-21.186335 4.82515,-4.563417 11.48919,-5.541673 17.68547,-2.596155 2.51068,1.193495 5.49988,4.1006 6.76375,6.577985 1.15351,2.261092 1.94864,6.435267 1.64556,8.638831 -0.47164,3.42922 -2.32653,7.628309 -3.97353,8.995192 -0.33089,0.274616 -0.60162,0.786762 -0.60162,1.138104 0,0.625601 4.5408,8.324816 11.39022,19.312823 17.89716,28.711083 39.54381,57.529228 61.04563,81.269938 11.28467,12.45971 25.06475,26.1356 26.25868,26.06016 0.42812,-0.0271 1.85404,-0.51417 3.16869,-1.08249 3.21179,-1.38841 8.21154,-1.46502 11.52625,-0.1766 4.18552,1.62691 7.73828,5.40579 8.92712,9.49528 1.92894,6.63526 -0.48284,13.53066 -6.03869,17.26502 -2.76557,1.85886 -4.15195,2.31445 -7.82665,2.57192 -4.88949,0.34258 -8.85112,-1.33262 -12.44136,-5.26091 -2.2913,-2.50705 -3.36103,-5.23536 -3.66231,-9.34062 l -0.2294,-3.12577 -4.14474,-2.07649 c -20.78578,-10.41353 -45.03765,-18.17245 -66.98583,-21.43084 -2.91808,-0.43321 -5.3656,-0.9677 -5.43896,-1.18775 -0.0734,-0.22005 0.63114,-1.29022 1.56552,-2.37812 0.93439,-1.08793 2.23887,-2.88819 2.89885,-4.0006 l 1.19996,-2.02256 1.9885,0.0671 c 2.59401,0.0877 11.20644,1.87166 20.19151,4.1826 11.29593,2.9053 22.03647,6.66336 35.75534,12.51064 1.56356,0.66642 2.94898,1.10553 3.07871,0.9758 0.12967,-0.12967 -2.91255,-3.51153 -6.76064,-7.51508 -26.94961,-28.03858 -52.40675,-61.70585 -75.71443,-100.132893 -2.63754,-4.348496 -5.11221,-8.475663 -5.49925,-9.171494 l -0.70372,-1.265146 -4.19076,0.05797 c -2.30493,0.03188 -4.31361,0.187494 -4.46375,0.345803 -0.15014,0.158309 -1.44734,2.313197 -2.88265,4.78864 -8.22513,14.185641 -22.45864,35.869108 -33.40726,50.89296 -15.855177,21.7567 -30.693647,39.53175 -47.692897,57.13148 -2.343,2.42577 -4.10862,4.46095 -3.9236,4.52263 0.18503,0.0617 2.13262,-0.65911 4.32799,-1.60172 11.57654,-4.9706 23.65567,-9.08627 34.88151,-11.88501 10.497007,-2.61705 22.003017,-4.7698 23.147067,-4.33079 0.47518,0.18235 0.57199,0.9957 0.57199,4.80605 0,2.90584 -0.14649,4.67708 -0.39974,4.83361 -0.21987,0.13593 -2.72573,0.64707 -5.56858,1.136 -21.192407,3.64469 -41.131447,10.16436 -62.246947,20.35352 -4.8553,2.3429 -5.3938,2.75558 -5.10376,3.9112 0.35727,1.42346 -0.54734,5.68577 -1.72051,8.10673 -1.19174,2.45926 -4.18612,5.50947 -6.635132,6.75887 -2.975727,1.5181 -6.91316,2.07311 -10.160474,1.4322 z"
       id="path12" /><text
       xml:space="preserve"
       style="font-style:normal;font-variant:normal;font-weight:bold;font-stretch:normal;font-size:122.682px;font-family:'Myanmar Text';-inkscape-font-specification:'Myanmar Text, Bold';font-variant-ligatures:normal;font-variant-caps:normal;font-variant-numeric:normal;font-variant-east-asian:normal;letter-spacing:0.131792px;word-spacing:0.128653px;writing-mode:lr-tb;direction:ltr;fill:#000000;fill-opacity:1;stroke-width:4.38812;stroke-dasharray:none;stroke-opacity:0.924138;paint-order:stroke fill markers"
       x="115.12763"
       y="188.58539"
       id="text764"><tspan
         sodipodi:role="line"
         id="tspan764"
         style="font-style:normal;font-variant:normal;font-weight:bold;font-stretch:normal;font-size:122.682px;font-family:'Myanmar Text';-inkscape-font-specification:'Myanmar Text, Bold';font-variant-ligatures:normal;font-variant-caps:normal;font-variant-numeric:normal;font-variant-east-asian:normal;fill:#000000;fill-opacity:1;stroke-width:4.38811"
         x="115.12763"
         y="188.58539">R</tspan></text></g></svg>
