<?xml version="1.0" encoding="UTF-8" standalone="no"?>
<!-- Created with Inkscape (http://www.inkscape.org/) -->

<svg
   width="210mm"
   height="297mm"
   viewBox="0 0 210 297"
   version="1.1"
   id="svg1"
   xml:space="preserve"
   sodipodi:docname="ResearchCamp-logo v1.svg"
   inkscape:version="1.4.2 (f4327f4, 2025-05-13)"
   xmlns:inkscape="http://www.inkscape.org/namespaces/inkscape"
   xmlns:sodipodi="http://sodipodi.sourceforge.net/DTD/sodipodi-0.dtd"
   xmlns:xlink="http://www.w3.org/1999/xlink"
   xmlns="http://www.w3.org/2000/svg"
   xmlns:svg="http://www.w3.org/2000/svg"><sodipodi:namedview
     id="namedview1"
     pagecolor="#ffffff"
     bordercolor="#000000"
     borderopacity="0.25"
     inkscape:showpageshadow="2"
     inkscape:pageopacity="0.0"
     inkscape:pagecheckerboard="0"
     inkscape:deskcolor="#d1d1d1"
     inkscape:document-units="mm"
     inkscape:zoom="0.25"
     inkscape:cx="176"
     inkscape:cy="454"
     inkscape:window-width="1920"
     inkscape:window-height="991"
     inkscape:window-x="-9"
     inkscape:window-y="-9"
     inkscape:window-maximized="1"
     inkscape:current-layer="layer1" /><defs
     id="defs1"><linearGradient
       id="linearGradient60"
       inkscape:collect="always"><stop
         style="stop-color:#0800e5;stop-opacity:1;"
         offset="0"
         id="stop60" /><stop
         style="stop-color:#e500ac;stop-opacity:0.46556473;"
         offset="1"
         id="stop61" /></linearGradient><rect
       x="407.13896"
       y="613.01882"
       width="29.778133"
       height="20.023228"
       id="rect29" /><linearGradient
       id="linearGradient16"
       inkscape:collect="always"><stop
         style="stop-color:#0800e5;stop-opacity:1;"
         offset="0"
         id="stop16" /><stop
         style="stop-color:#e500ac;stop-opacity:0.46666667;"
         offset="1"
         id="stop17" /></linearGradient><rect
       x="338.35328"
       y="490.83008"
       width="142.31168"
       height="52.27776"
       id="rect1" /><linearGradient
       inkscape:collect="always"
       xlink:href="#linearGradient16"
       id="linearGradient17"
       x1="120.01374"
       y1="192.83723"
       x2="99.145599"
       y2="85.479973"
       gradientUnits="userSpaceOnUse"
       gradientTransform="matrix(1.6387184,0,0,1.6387184,-74.13087,-84.84651)" /><linearGradient
       inkscape:collect="always"
       xlink:href="#linearGradient60"
       id="linearGradient74"
       gradientUnits="userSpaceOnUse"
       x1="129.27887"
       y1="203.39525"
       x2="123.00793"
       y2="181.52592"
       gradientTransform="matrix(1.092943,0,0,1.2029012,-31.178243,-56.381031)" /></defs><g
     inkscape:label="Layer 1"
     inkscape:groupmode="layer"
     id="layer1"><text
       xml:space="preserve"
       transform="scale(0.26458333)"
       id="text29"
       style="text-align:start;letter-spacing:0.42px;word-spacing:0.41px;writing-mode:lr-tb;direction:ltr;white-space:pre;shape-inside:url(#rect29);display:inline;fill:#000000;fill-opacity:0.946384;stroke:none;stroke-opacity:0.924138" /><path
       style="fill:url(#linearGradient17);stroke-width:1.63872"
       d="m 21.512353,196.78764 c -2.406213,-1.09295 -4.777274,-3.97587 -5.398004,-6.56333 -1.899685,-7.9188 6.031483,-14.58875 13.381513,-11.25358 l 1.889246,0.85727 4.726293,-2.84765 c 13.823606,-8.32889 28.494498,-20.87851 39.101154,-33.44748 7.352405,-8.71267 15.315484,-21.12732 20.459682,-31.89723 l 2.72445,-5.7039 -0.97412,-1.31473 c -1.32643,-1.7902 -1.96104,-3.85481 -1.96104,-6.379973 0,-8.140302 10.408283,-12.496982 16.574403,-6.937663 3.42348,3.086542 4.28838,7.411235 2.32537,11.627136 -0.56997,1.22414 -1.29974,2.31806 -1.62167,2.43097 -0.42954,0.1506 0.14567,1.69335 2.16081,5.79549 8.27217,16.83917 17.60548,29.91871 30.60921,42.89525 9.04027,9.02139 20.69563,18.01874 31.24778,24.12171 l 2.60158,1.50465 1.7342,-0.77871 c 3.79958,-1.70611 8.68817,-0.62941 11.46494,2.52516 3.06041,3.47681 3.32254,8.29945 0.67122,12.34899 -2.50664,3.82857 -9.11157,4.98357 -13.30991,2.32749 -2.06547,-1.30673 -4.24608,-4.14655 -4.24608,-5.52973 0,-0.43669 -0.24388,-0.86719 -0.54196,-0.95669 -0.29811,-0.0895 -3.39366,-0.63344 -6.61206,-1.96324 -7.61749,-3.14746 -26.77149,-12.61765 -49.45942,-20.9948 -0.18615,-1.65305 -1.6288,-5.12233 -3.59815,-7.51873 -0.17467,-0.21254 24.06927,6.05263 30.26732,8.49783 3.68116,1.45226 6.77863,2.55486 6.88328,2.45021 0.10476,-0.10466 -0.46834,-0.73483 -1.2733,-1.40043 -10.59967,-8.76425 -22.22278,-21.73099 -29.65055,-33.07812 -5.4427,-8.31459 -6.9152,-10.87666 -10.97765,-19.10047 l -3.75955,-7.61068 -1.81385,-0.0131 c -1.56756,-0.0115 -1.84996,0.13093 -2.08,1.04745 -0.45237,1.80242 -5.127443,11.3388 -8.017703,16.35486 -4.184757,7.26263 -8.586317,13.71928 -13.627568,19.99032 -4.857309,6.04221 -16.456852,17.94888 -20.962078,21.51712 -1.490436,1.18044 -2.709868,2.30548 -2.709868,2.50011 0,0.1946 1.565088,-0.30624 3.477982,-1.11299 6.500142,-2.74141 32.459152,-11.54735 32.410282,-10.37624 -0.0862,2.06515 -0.23289,5.49672 -0.0736,7.64626 0.0497,0.66982 -10.107043,4.03129 -15.462878,6.71007 -14.294691,7.14962 -26.761268,11.79659 -42.355906,16.45535 -0.298082,0.0889 -0.541972,0.51919 -0.541972,0.95589 0,0.43668 -0.514231,1.58701 -1.142728,2.5563 -2.529232,3.90065 -8.303141,5.58761 -12.539163,3.66354 z"
       id="path31"
       sodipodi:nodetypes="csscssscssssscsscssssssscssscssccssssssssscsscc" /><path
       style="fill:url(#linearGradient74);fill-opacity:1;stroke-width:1.1466"
       d="m 96.710837,193.08116 -2.31339,-0.18034 v -8.75236 -8.75236 l 6.361833,-0.15913 c 7.11309,-0.17794 7.66319,-0.32726 8.82465,-2.39561 0.53451,-0.95187 0.61923,-1.48002 0.518,-3.22963 -0.11422,-1.97349 -0.18893,-2.1614 -1.32283,-3.32551 l -1.20184,-1.23383 h -6.17317 c -4.513833,0 -6.307343,-0.10803 -6.672313,-0.4017 -0.43164,-0.34737 -0.48801,-0.89631 -0.41675,-4.05792 l 0.0824,-3.6562 c 1.46724,-1.84048 3.0299,-3.61922 6.904163,-3.9022 2.79499,0.37806 5.18458,2.10738 7.55454,3.9022 l 1.48077,0.39035 c 8.12326,2.14148 9.87454,15.2063 4.17379,21.84042 -0.80383,0.93545 -1.46151,1.79121 -1.46151,1.90171 0,0.11055 1.36634,2.62198 3.03633,5.58105 1.67,2.95907 3.03634,5.54374 3.03634,5.74373 0,0.66989 -1.2771,0.87001 -4.68294,0.73379 l -3.38164,-0.13524 -2.80185,-4.91295 -2.80188,-4.91293 -1.9134,0.0931 -1.91336,0.0931 v 4.56015 c 0,4.14643 -0.0509,4.60119 -0.56133,5.01271 -0.30872,0.24892 -0.89429,0.42631 -1.301273,0.39421 -0.40697,-0.0322 -1.78098,-0.13951 -3.05336,-0.2387 z"
       id="path53"
       sodipodi:nodetypes="ccccsscscssscccsssssscccccssscc" /></g></svg>
